# xmcd
#
# Track frame offsets:
#	150
#	13335
#	26371
#	43462
#	55292
#	68769
#	88635
#	102669
#	115827
#	128661
#	143706
#	161727
#
# Disc length: 2342 seconds
#
# Revision: 0
# Processed by: cddbd v1.5.2PL0 Copyright (c) Steve Scherf et al.
# Submitted via: EasyCDDAExtractor 16.0.1.1
#
DISCID=a809240c
DTITLE=Cody Dodson - Drinkin' Things Over
DYEAR=2008
DGENRE=Country
TTITLE0=Drinking Things Over
TTITLE1=Miss Molly
TTITLE2=Let Me Go Home Whiskey
TTITLE3=Think Of Me
TTITLE4=Oh Boy
TTITLE5=Someday
TTITLE6=She's The Trip That I've Been On
TTITLE7=You Were Just Looking Over My Shoulder
TTITLE8=Leave Amarillo
TTITLE9=I Won't Be Back Tonight
TTITLE10=Occasional Wife
TTITLE11=She Won't Let Me Forget Her
EXTD=
EXTT0=
EXTT1=
EXTT2=
EXTT3=
EXTT4=
EXTT5=
EXTT6=
EXTT7=
EXTT8=
EXTT9=
EXTT10=
EXTT11=
PLAYORDER=
